<?xml version="1.0" standalone="no"?>
<!DOCTYPE svg PUBLIC "-//W3C//DTD SVG 20010904//EN"
 "http://www.w3.org/TR/2001/REC-SVG-20010904/DTD/svg10.dtd">
<svg version="1.0" xmlns="http://www.w3.org/2000/svg"
 width="1211.000000pt" height="483.000000pt" viewBox="0 0 1211.000000 483.000000"
 preserveAspectRatio="xMidYMid meet">
<metadata>
Created by potrace 1.16, written by Peter Selinger 2001-2019
</metadata>
<g transform="translate(0.000000,483.000000) scale(0.100000,-0.100000)"
fill="#000000" stroke="none">
<path d="M9524 4573 c-269 -182 -293 -205 -279 -263 4 -14 49 -105 101 -204
52 -98 94 -182 92 -187 -2 -5 -63 59 -137 142 -73 83 -144 154 -157 159 -14 6
-34 6 -48 1 -50 -20 -176 -209 -176 -266 0 -33 27 -61 318 -323 158 -143 202
-189 202 -208 0 -13 -2 -24 -4 -24 -3 0 -131 86 -284 190 -154 105 -288 190
-297 190 -38 0 -55 -22 -80 -102 -31 -100 -45 -194 -33 -228 6 -18 106 -92
346 -256 290 -199 373 -264 335 -264 -4 0 -145 70 -313 155 -168 85 -315 155
-327 155 -27 0 -63 -33 -63 -58 0 -36 31 -134 61 -195 59 -118 221 -308 333
-389 52 -38 80 -36 302 14 l184 41 215 -43 c205 -41 217 -43 248 -28 55 27
176 137 244 222 107 134 189 332 169 409 -14 59 -35 52 -384 -122 -178 -89
-322 -156 -320 -149 2 7 157 121 344 253 235 167 343 250 353 269 12 26 11 44
-13 159 -26 127 -47 187 -66 187 -5 0 -44 -25 -87 -56 -100 -72 -520 -354
-528 -354 -3 0 -5 8 -5 18 0 10 88 99 209 210 115 106 230 215 255 242 43 46
46 53 46 103 0 43 -7 64 -36 113 -44 74 -81 112 -119 122 -61 17 -86 0 -219
-154 -85 -98 -126 -139 -126 -125 0 11 41 102 90 202 50 99 90 190 90 201 0
52 -32 86 -175 187 -88 63 -152 101 -168 101 -13 0 -56 -21 -93 -47z m232 -94
c136 -97 153 -113 154 -143 0 -11 -40 -99 -90 -197 -75 -147 -90 -185 -90
-223 0 -40 4 -48 25 -58 34 -15 42 -8 185 159 66 78 130 145 141 148 38 12
102 -51 144 -144 14 -32 16 -49 9 -69 -5 -15 -115 -125 -254 -254 -265 -246
-282 -268 -246 -322 10 -16 26 -26 40 -26 20 0 352 217 538 351 l66 48 21 -90
c34 -147 35 -162 14 -186 -10 -12 -157 -119 -328 -238 -170 -120 -320 -227
-332 -238 -43 -39 -37 -117 9 -117 12 0 163 72 336 161 173 88 320 158 327
155 26 -10 -23 -156 -86 -262 -78 -129 -269 -314 -324 -314 -13 0 -112 18
-220 41 l-197 41 -199 -46 c-183 -42 -203 -45 -232 -32 -37 16 -208 185 -269
266 -80 107 -155 299 -117 300 8 0 154 -70 324 -156 335 -171 356 -177 370
-116 13 59 -1 71 -346 309 -183 125 -337 231 -343 235 -19 13 42 268 65 268 8
0 381 -250 525 -352 25 -18 51 -28 65 -26 33 4 54 46 45 91 -6 33 -37 65 -261
269 -140 127 -255 238 -255 245 0 37 125 223 150 223 5 0 74 -72 152 -160 142
-160 166 -178 196 -148 30 30 13 83 -84 267 -52 100 -94 189 -92 198 3 18 302
233 323 233 7 0 71 -41 141 -91z"/>
<path d="M9577 4454 c-4 -4 -7 -71 -7 -148 l-1 -141 -59 123 c-55 115 -77 141
-95 112 -3 -5 21 -67 54 -137 49 -104 64 -128 80 -127 21 1 21 -3 20 -285 l0
-286 -213 218 c-154 159 -219 218 -232 215 -11 -2 -19 -9 -19 -16 0 -6 105
-120 234 -253 l234 -241 -7 -368 c-5 -291 -4 -370 6 -378 16 -13 615 107 622
124 2 6 1 17 -4 23 -6 10 -68 1 -281 -43 -151 -31 -280 -56 -286 -56 -10 0
-13 34 -12 138 l0 137 360 239 c197 132 359 246 359 253 0 40 -47 14 -375
-206 l-345 -232 1 178 0 178 250 264 c236 250 280 308 230 299 -10 -2 -105
-95 -211 -208 -106 -113 -209 -222 -230 -244 l-38 -38 6 288 c2 159 9 291 14
292 12 5 128 237 128 257 0 8 -9 15 -20 15 -15 0 -31 -22 -68 -96 l-47 -95 -5
123 c-4 100 -8 123 -20 126 -9 1 -19 0 -23 -4z"/>
<path d="M8873 3564 c-3 -8 1 -22 8 -29 33 -32 642 -455 655 -455 10 0 14 8
12 22 -2 15 -93 85 -327 250 -178 125 -328 228 -333 228 -5 0 -11 -7 -15 -16z"/>
<path d="M8970 2895 c-8 -10 -9 -19 -4 -25 10 -9 521 -120 554 -120 29 0 26
38 -2 45 -13 3 -131 28 -263 55 -132 28 -247 53 -256 56 -9 2 -22 -3 -29 -11z"/>
<path d="M3020 3020 l0 -320 25 0 25 0 0 105 0 105 79 0 79 0 79 -104 c71 -95
81 -105 111 -105 17 -1 32 2 32 6 0 4 -34 51 -75 104 -41 54 -75 100 -75 103
0 3 6 6 13 6 7 0 34 13 59 29 58 37 91 101 90 174 -1 68 -15 104 -60 150 -51
52 -107 67 -259 67 l-123 0 0 -320z m311 237 c102 -69 106 -199 7 -265 -36
-23 -52 -26 -154 -30 l-114 -5 0 162 0 161 114 0 c101 0 117 -2 147 -23z"/>
<path d="M4100 3020 l0 -322 113 4 c129 4 179 22 246 89 57 57 83 118 89 204
9 136 -53 247 -170 304 -54 27 -78 32 -170 38 l-108 6 0 -323z m220 245 c61
-21 112 -66 145 -127 26 -45 30 -64 29 -123 0 -80 -17 -119 -73 -178 -53 -56
-104 -79 -188 -85 l-73 -5 0 267 0 266 59 0 c32 0 77 -7 101 -15z"/>
<path d="M910 3320 c0 -19 213 -630 219 -630 6 0 221 618 221 633 0 4 -12 7
-27 7 -27 0 -30 -5 -108 -235 -44 -129 -82 -235 -85 -235 -3 0 -42 105 -87
233 -76 219 -82 232 -107 235 -15 2 -26 -2 -26 -8z"/>
<path d="M1990 3015 l0 -315 195 0 195 0 0 25 0 25 -170 0 -170 0 0 80 0 80
150 0 150 0 0 25 0 25 -150 0 -150 0 0 160 0 160 170 0 170 0 0 25 0 25 -195
0 -195 0 0 -315z"/>
<path d="M5190 3015 l0 -315 195 0 195 0 0 25 0 25 -170 0 -170 0 0 80 0 80
150 0 150 0 0 25 0 25 -150 0 -150 0 0 160 0 160 170 0 170 0 0 25 0 25 -195
0 -195 0 0 -315z"/>
<path d="M9627 2368 c-263 -648 -620 -1526 -624 -1536 -4 -10 16 -12 93 -10
l98 3 61 150 62 150 315 3 316 2 63 -155 63 -155 94 0 c85 0 94 2 90 18 -9 32
-610 1527 -618 1535 -4 5 -10 2 -13 -5z m137 -778 l114 -285 -240 -3 c-133 -1
-243 -1 -244 1 -2 2 51 139 119 305 87 216 124 297 130 285 4 -10 59 -146 121
-303z"/>
<path d="M800 2220 l0 -90 195 0 195 0 0 -655 0 -655 90 0 90 0 0 655 0 655
195 0 195 0 0 90 0 90 -480 0 -480 0 0 -90z"/>
<path d="M2130 1565 l0 -745 90 0 90 0 0 240 0 240 160 0 159 0 38 -56 c150
-220 328 -422 483 -547 460 -371 1041 -506 1476 -342 164 62 301 152 452 299
97 94 212 231 212 252 0 5 -25 26 -56 48 l-56 38 -16 -23 c-46 -66 -227 -249
-302 -305 -98 -74 -273 -165 -375 -195 -110 -33 -338 -37 -475 -9 -212 43
-423 133 -616 261 -144 96 -317 268 -458 457 l-107 142 28 11 c163 61 288 203
322 367 56 271 -118 540 -386 597 -50 11 -146 15 -365 15 l-298 0 0 -745z
m690 534 c66 -31 131 -94 162 -157 19 -39 23 -63 23 -142 0 -87 -3 -100 -30
-149 -33 -60 -87 -110 -154 -143 -43 -22 -61 -23 -278 -26 l-233 -3 0 326 0
326 228 -3 c220 -3 229 -4 282 -29z"/>
<path d="M5430 1565 l0 -745 85 0 85 0 0 240 0 240 218 0 c289 0 362 18 489
118 179 142 230 431 112 638 -69 122 -212 221 -349 243 -36 6 -194 11 -352 11
l-288 0 0 -745z m680 534 c77 -36 121 -77 161 -151 30 -56 33 -72 34 -143 0
-97 -30 -170 -95 -233 -83 -82 -104 -87 -372 -90 l-238 -3 0 326 0 327 228 -4
c220 -3 229 -4 282 -29z"/>
<path d="M6860 1565 l0 -745 90 0 90 0 0 745 0 745 -90 0 -90 0 0 -745z"/>
<path d="M8080 2299 c-255 -21 -481 -181 -592 -417 -50 -105 -68 -190 -68
-323 0 -231 97 -435 278 -579 135 -107 275 -154 462 -154 142 -1 212 14 325
69 74 36 174 104 175 119 0 7 -33 49 -101 130 -4 4 -31 -10 -61 -33 -313 -236
-771 -78 -884 304 -26 87 -24 221 4 312 28 91 107 210 178 268 100 81 244 135
364 135 104 0 250 -51 336 -116 17 -13 35 -24 40 -24 5 0 31 30 59 67 l50 66
-35 29 c-56 46 -202 115 -282 132 -94 19 -155 23 -248 15z"/>
<path d="M4135 2285 c-228 -63 -389 -191 -489 -392 -57 -113 -79 -225 -73
-363 8 -200 75 -351 222 -496 66 -66 99 -90 176 -128 129 -63 199 -80 339 -80
88 0 133 5 193 22 275 78 474 290 531 564 80 388 -158 772 -538 868 -95 24
-283 26 -361 5z m287 -170 c112 -23 193 -68 279 -154 119 -119 169 -237 169
-401 0 -212 -123 -408 -313 -499 -168 -80 -318 -82 -482 -6 -95 44 -165 102
-225 187 -144 205 -134 488 24 677 138 165 345 239 548 196z"/>
<path d="M10620 1560 l0 -740 415 0 415 0 0 90 0 90 -325 0 -325 0 0 650 0
650 -90 0 -90 0 0 -740z"/>
</g>
</svg>
