<?xml version="1.0" encoding="utf-8"?>
<!-- Generator: Adobe Illustrator 24.2.1, SVG Export Plug-In . SVG Version: 6.00 Build 0)  -->
<svg version="1.1" id="Layer_1" xmlns="http://www.w3.org/2000/svg" xmlns:xlink="http://www.w3.org/1999/xlink" x="0px" y="0px"
	 viewBox="0 0 500 500" style="enable-background:new 0 0 500 500;" xml:space="preserve">
<style type="text/css">
	.st0{fill:#5D7248;}
	.st1{fill:#555448;}
</style>
<g>
	<g>
		<g>
			<path class="st0" d="M375.37,241.68c3.68-0.83,7.37-1.67,11.05-2.5c0.79-0.18,1.59-0.36,2.38-0.54c0.54-0.12,1.04-0.23,1.61-0.13
				c1.47,0.25,2.93,0.6,4.4,0.9c2.39,0.49,4.77,0.97,7.16,1.46c0.85,0.17,1.7,0.35,2.54,0.52c0.57,0.12,1.16,0.27,1.75,0.25
				c1.34-0.05,2.33-0.82,3.34-1.59c0.89-0.68,1.76-1.39,2.6-2.14c2.26-1.99,4.32-4.21,6.13-6.62c2.12-2.84,3.84-6,4.89-9.39
				c0.28-0.9,0.51-1.82,0.69-2.74c0.16-0.83,0.42-1.76-0.03-2.55c-0.6-1.07-1.86-1.34-2.92-0.83c-2.82,1.34-5.58,2.81-8.36,4.21
				c-4.23,2.13-8.46,4.25-12.69,6.38c-1.14,0.57-2.27,1.15-3.41,1.71c-0.03,0.01-0.21,0.13-0.24,0.12
				c-0.01-0.01,0.05-0.82,0.06-0.92c0.05-0.49,0.27-0.7,0.62-0.95c2.73-1.93,5.47-3.86,8.2-5.79c3.96-2.8,7.92-5.6,11.89-8.39
				c1.36-0.96,2.71-1.92,4.07-2.87c0.92-0.65,1.97-1.25,2.46-2.31c0.68-1.45,0.14-3.07-0.15-4.56c-0.3-1.53-0.61-3.06-0.98-4.57
				c-0.27-1.12-0.52-2.31-1.04-3.34c-0.37-0.75-1.24-1.16-1.78-0.3c-0.13,0.21,0.09-0.07,0.02,0.01c-0.05,0.05-0.1,0.1-0.16,0.15
				c-0.21,0.18-0.35,0.29-0.48,0.38c-0.65,0.5-1.32,0.97-1.99,1.45c-2.12,1.5-4.26,2.96-6.41,4.42c-4.43,3.01-8.89,5.99-13.35,8.96
				c-0.48,0.32-0.91,0.4-0.96-0.29c-0.05-0.62-0.1-1.21,0.37-1.69c0.18-0.19,0.38-0.35,0.57-0.53c1.19-1.1,2.38-2.2,3.57-3.3
				c3.51-3.25,7.02-6.5,10.53-9.74c1.06-0.98,2.11-1.96,3.17-2.94c1.88-1.74,2.48-4.21,1.32-6.56c-0.9-1.83-2.02-3.56-3.36-5.09
				c-1.17-1.34-2.89-2.04-4.63-1.38c-1.43,0.54-2.43,2.09-3.39,3.2c-1.57,1.82-3.14,3.64-4.72,5.45c-0.67,0.77-1.33,1.54-2,2.31
				c-0.27,0.31-0.61,0.9-0.96,1.11c-0.27,0.16-0.23-0.05-0.23-0.29c0-0.5-0.04-1.01,0-1.5c0.03-0.47,0.3-0.87,0.51-1.29
				c0.97-1.91,1.95-3.82,2.92-5.74c0.94-1.85,1.88-3.7,2.83-5.54c0.3-0.59,0.62-1.17,0.74-1.83c0.33-1.75-0.36-3.48-1.78-4.54
				c-3-2.25-6.13-4.35-9.19-6.52c-0.59-0.42-1.12-0.84-1.87-0.91c-0.84-0.08-1.46,0.31-2.11,0.76c-1.67,1.16-3.35,2.33-5.02,3.49
				c-1.75,1.22-3.51,2.44-5.26,3.66c-0.42,0.29-0.89,0.57-1.24,0.93c-1.05,1.07-1.2,2.64-0.55,3.96c1.74,3.51,3.64,6.95,5.46,10.42
				c0.41,0.79,0.83,1.58,1.24,2.37c0.23,0.44,0.54,0.89,0.54,1.4c0,0.3,0.07,1.13-0.35,0.91c-0.07-0.03-0.13-0.15-0.18-0.2
				c-0.45-0.49-0.88-0.99-1.33-1.49c-2.84-3.19-5.69-6.38-8.53-9.57c-0.47-0.52-0.93-0.99-1.66-1.15c-1.74-0.37-2.9,1.32-3.87,2.48
				c-1.28,1.52-2.45,3.15-3.35,4.93c-0.78,1.55-1.64,3.35-0.19,4.79c2.12,2.1,4.43,4.03,6.64,6.03c3.44,3.12,6.88,6.25,10.32,9.37
				c0.74,0.67,1.57,1.31,2.26,2.05c0.24,0.26,0.28,0.49,0.28,0.82c0.01,0.44,0.09,1.02,0,1.45c-0.13,0.63-0.6,0.34-0.94,0.11
				c-3.06-2.08-6.12-4.16-9.18-6.24c-3.55-2.41-7.11-4.83-10.66-7.24c-1.06-0.72-2.21-1.72-3.54-0.84
				c-0.68,0.45-0.89,1.23-1.15,1.96c-0.3,0.83-0.58,1.67-0.83,2.52c-0.56,1.88-1.03,3.81-1.2,5.76c-0.11,1.27-0.1,2.39,1.02,3.19
				c0.26,0.19,0.53,0.37,0.8,0.55c1.26,0.86,2.52,1.73,3.78,2.59c3.96,2.72,7.93,5.44,11.89,8.16c2.93,2.01,5.86,4.02,8.79,6.03
				c0.16,0.11,0.36,0.21,0.5,0.35c0.37,0.34,0.35,1.05,0.32,1.52c-0.04,0.75-0.65,0.38-1.07,0.16c-2.49-1.26-4.97-2.52-7.46-3.78
				c-3.06-1.55-6.11-3.11-9.17-4.67c-1.35-0.69-2.7-1.38-4.05-2.08c-0.56-0.29-1.13-0.58-1.69-0.87c-0.58-0.3-1.15-0.67-1.82-0.68
				c-0.82-0.01-1.62,0.43-2.04,1.13c-0.35,0.59-0.35,1.22-0.26,1.88c0.11,0.79,0.28,1.56,0.5,2.33c0.63,2.23,1.64,4.35,2.84,6.33
				c1.71,2.83,3.82,5.41,6.11,7.78c1.47,1.53,3.02,2.97,4.62,4.35c0.79,0.68,1.56,1.41,2.54,1.8
				C373.39,241.83,374.38,241.87,375.37,241.68c0.89-0.18,0.51-1.54-0.38-1.36c-2.36,0.47-4.1-1.62-5.67-3.06
				c-1.56-1.42-3.06-2.91-4.46-4.49c-2.07-2.32-3.94-4.83-5.38-7.59c-0.93-1.78-1.68-3.67-2.09-5.64c-0.16-0.76-0.54-2.45,0.84-2.26
				c0.53,0.07,1.14,0.53,1.62,0.78c0.57,0.29,1.14,0.59,1.72,0.88c5.74,2.95,11.5,5.87,17.26,8.79c1.03,0.52,2.06,1.04,3.08,1.56
				c0.65,0.33,1.32,0.53,2.01,0.15c0.62-0.35,0.9-0.98,0.9-1.67c0-1.09-0.1-2.07-1.05-2.76c-0.22-0.16-0.44-0.3-0.66-0.46
				c-3.02-2.07-6.03-4.14-9.05-6.21c-3.89-2.67-7.78-5.34-11.67-8c-1.22-0.84-2.44-1.67-3.66-2.51c-0.23-0.16-0.5-0.31-0.71-0.49
				c-0.39-0.33-0.36-0.77-0.35-1.24c0.03-0.94,0.17-1.87,0.35-2.78c0.37-1.87,0.92-3.71,1.55-5.5c0.27-0.77,0.55-2.07,1.59-1.4
				c0.98,0.64,1.94,1.32,2.91,1.98c3.85,2.62,7.71,5.24,11.56,7.86c1.65,1.12,3.3,2.24,4.94,3.36c0.69,0.47,1.5,1.24,2.33,1.48
				c0.72,0.21,1.53-0.07,1.96-0.69c0.33-0.46,0.34-0.97,0.34-1.51c0-1.03,0.1-2.02-0.69-2.81c-0.7-0.69-1.46-1.33-2.19-1.99
				c-3.4-3.08-6.79-6.17-10.19-9.25c-1.54-1.4-3.09-2.8-4.63-4.21c-0.73-0.66-1.5-1.3-2.19-1.99c-0.47-0.47-0.5-0.94-0.29-1.54
				c0.36-1.01,0.87-1.97,1.42-2.88c0.96-1.59,2.11-3.06,3.37-4.43c0.5-0.55,1.14-1.37,1.95-0.83c0.15,0.1,0.26,0.24,0.38,0.37
				c0.42,0.46,0.83,0.94,1.25,1.4c2.84,3.18,5.67,6.36,8.51,9.55c0.33,0.37,0.64,0.79,1.13,0.96c0.7,0.23,1.5-0.07,1.86-0.72
				c0.24-0.43,0.26-1.1,0.27-1.59c0.01-0.7-0.29-1.26-0.6-1.85c-0.37-0.7-0.74-1.41-1.11-2.11c-1.89-3.6-3.83-7.19-5.67-10.81
				c-0.46-0.91-0.34-1.93,0.5-2.59c0.34-0.27,0.72-0.5,1.08-0.75c1.83-1.27,3.65-2.54,5.48-3.81c1.54-1.07,3.09-2.15,4.63-3.22
				c0.55-0.38,1.09-0.6,1.73-0.17c0.51,0.35,1.01,0.72,1.51,1.07c1.92,1.36,3.84,2.72,5.76,4.09c1.29,0.92,3.24,1.87,3.65,3.53
				c0.38,1.57-0.79,3.18-1.47,4.52c-1.08,2.11-2.15,4.22-3.23,6.33c-0.67,1.32-1.38,2.62-2.02,3.96c-0.41,0.86-0.33,1.96-0.29,2.9
				c0.05,1.37,1.6,2.13,2.63,1.1c0.98-0.99,1.84-2.13,2.76-3.19c1.57-1.81,3.13-3.62,4.7-5.44c0.54-0.63,1.08-1.25,1.62-1.88
				c0.41-0.47,0.79-0.96,1.37-1.22c2.05-0.9,3.5,1.15,4.51,2.61c0.56,0.8,1.06,1.63,1.52,2.49c0.45,0.84,0.83,1.65,0.8,2.63
				c-0.06,1.68-1.21,2.64-2.33,3.67c-1.34,1.24-2.68,2.48-4.03,3.72c-3.43,3.17-6.86,6.35-10.29,9.52
				c-0.88,0.82-1.78,1.62-2.64,2.45c-0.69,0.66-0.93,1.46-0.89,2.4c0.03,0.62,0.03,1.24,0.46,1.73c0.52,0.59,1.37,0.79,2.09,0.47
				c0.88-0.38,1.71-1.1,2.5-1.63c1.04-0.69,2.08-1.39,3.12-2.08c2.44-1.63,4.88-3.27,7.32-4.92c2.2-1.49,4.4-2.99,6.58-4.52
				c1.2-0.84,2.59-1.64,3.63-2.68c0.04-0.04,0.07-0.07,0.11-0.11c0.04-0.05,0.1-0.11,0.13-0.17c0.07-0.16,0.01-0.02-0.01-0.04
				c0.06,0.04-0.48,0.1-0.45,0.1c0.26,0.03-0.37-0.07-0.3-0.09c0.02,0,0-0.04,0.02,0.02c0.04,0.14,0.15,0.28,0.2,0.41
				c0.48,1.18,0.74,2.47,1.02,3.71c0.34,1.49,0.64,2.98,0.92,4.48c0.25,1.3,0.62,2.65-0.59,3.61c-2.12,1.66-4.43,3.13-6.63,4.68
				c-3.96,2.8-7.92,5.6-11.89,8.39c-2.36,1.67-4.76,3.3-7.09,5.01c-0.84,0.62-1.06,1.38-1.11,2.37c-0.03,0.65-0.02,1.28,0.58,1.69
				c0.46,0.32,1,0.31,1.5,0.08c0.83-0.38,1.63-0.82,2.44-1.23c4-2.01,8-4.02,12-6.03c3.28-1.65,6.57-3.3,9.85-4.95
				c0.27-0.14,0.55-0.33,0.87-0.28c0.95,0.16,0.5,1.46,0.38,2.07c-0.18,0.92-0.42,1.83-0.71,2.73c-1.07,3.35-2.83,6.45-4.97,9.23
				c-1.77,2.3-3.8,4.39-5.99,6.29c-0.79,0.68-1.6,1.34-2.43,1.96c-0.86,0.64-1.68,1.19-2.82,0.98c-3.89-0.7-7.75-1.58-11.63-2.37
				c-0.82-0.17-1.64-0.33-2.46-0.5c-0.62-0.13-1.25-0.28-1.89-0.23c-1.39,0.1-2.81,0.58-4.16,0.89c-3.49,0.79-6.98,1.58-10.46,2.37
				C374.11,240.52,374.48,241.88,375.37,241.68z"/>
		</g>
		<g>
			<path class="st0" d="M389.02,168.92c-0.01,2.18-0.03,4.36-0.04,6.54c-0.03,5.23-0.06,10.46-0.1,15.7
				c-0.04,6.33-0.08,12.66-0.12,18.99c-0.03,5.47-0.07,10.94-0.1,16.41c-0.02,2.64-0.14,5.31-0.05,7.95c0,0.04,0,0.08,0,0.11
				c0,0.48,0.45,0.77,0.89,0.68c6.69-1.37,13.38-2.74,20.06-4.11c0.95-0.2,1.91-0.39,2.86-0.59c0.89-0.18,0.51-1.54-0.38-1.36
				c-6.69,1.37-13.38,2.74-20.06,4.11c-0.95,0.2-1.91,0.39-2.86,0.59c0.3,0.23,0.6,0.45,0.89,0.68c0.01-2.18,0.03-4.36,0.04-6.54
				c0.03-5.23,0.06-10.46,0.1-15.7c0.04-6.33,0.08-12.66,0.12-18.99c0.03-5.47,0.07-10.94,0.1-16.41c0.02-2.64,0.14-5.31,0.05-7.95
				c0-0.04,0-0.08,0-0.11C390.44,168.01,389.03,168.01,389.02,168.92L389.02,168.92z"/>
		</g>
		<g>
			<path class="st0" d="M365.68,230.33c6.11,1.29,12.23,2.59,18.34,3.88c0.86,0.18,1.72,0.36,2.58,0.54
				c0.89,0.19,1.26-1.17,0.38-1.36c-6.11-1.29-12.23-2.59-18.34-3.88c-0.86-0.18-1.72-0.36-2.58-0.54
				C365.17,228.78,364.79,230.14,365.68,230.33L365.68,230.33z"/>
		</g>
		<g>
			<path class="st0" d="M361.89,204.11c2.82,1.98,5.63,3.97,8.45,5.95c4.47,3.15,8.93,6.29,13.4,9.44c1.03,0.73,2.06,1.45,3.09,2.18
				c0.74,0.52,1.45-0.7,0.71-1.22c-2.82-1.98-5.63-3.97-8.45-5.95c-4.47-3.15-8.93-6.29-13.4-9.44c-1.03-0.73-2.06-1.45-3.09-2.18
				C361.86,202.37,361.15,203.59,361.89,204.11L361.89,204.11z"/>
		</g>
		<g>
			<path class="st0" d="M390.49,222.21c3.06-2.05,6.12-4.1,9.18-6.15c4.88-3.27,9.77-6.54,14.65-9.81c1.13-0.76,2.26-1.51,3.39-2.27
				c0.75-0.5,0.05-1.73-0.71-1.22c-3.06,2.05-6.12,4.1-9.18,6.15c-4.88,3.27-9.77,6.54-14.65,9.81c-1.13,0.76-2.26,1.51-3.39,2.27
				C389.02,221.5,389.73,222.72,390.49,222.21L390.49,222.21z"/>
		</g>
		<g>
			<path class="st0" d="M408.53,184.77c-2.15,2.29-4.3,4.57-6.45,6.86c-3.45,3.67-6.9,7.33-10.35,11c-0.79,0.84-1.58,1.68-2.37,2.52
				c0.33,0,0.67,0,1,0c-2.08-2.13-4.17-4.26-6.25-6.38c-3.32-3.39-6.64-6.79-9.96-10.18c-0.76-0.78-1.53-1.56-2.29-2.34
				c-0.64-0.65-1.63,0.35-1,1c2.08,2.13,4.17,4.26,6.25,6.38c3.32,3.39,6.64,6.79,9.96,10.18c0.76,0.78,1.53,1.56,2.29,2.34
				c0.26,0.27,0.74,0.28,1,0c2.15-2.29,4.3-4.57,6.45-6.86c3.45-3.67,6.9-7.33,10.35-11c0.79-0.84,1.58-1.68,2.37-2.52
				C410.15,185.11,409.16,184.11,408.53,184.77L408.53,184.77z"/>
		</g>
		<g>
			<path class="st0" d="M382.82,171.15c1.25,2.66,2.51,5.33,3.76,7.99c0.18,0.38,0.35,0.75,0.53,1.13c0.39,0.82,1.6,0.11,1.22-0.71
				c-1.25-2.66-2.51-5.33-3.76-7.99c-0.18-0.38-0.35-0.75-0.53-1.13C383.65,169.62,382.43,170.33,382.82,171.15L382.82,171.15z"/>
		</g>
		<g>
			<path class="st0" d="M394.62,170.84c-1.29,2.55-2.59,5.1-3.88,7.64c-0.18,0.36-0.36,0.71-0.54,1.07
				c-0.41,0.81,0.81,1.52,1.22,0.71c1.29-2.55,2.59-5.1,3.88-7.64c0.18-0.36,0.36-0.71,0.54-1.07
				C396.24,170.74,395.03,170.03,394.62,170.84L394.62,170.84z"/>
		</g>
	</g>
</g>
<g>
	<path class="st0" d="M67.47,212.32l-8.51,24.77l-8.58-24.77h1.8l6.78,19.54l6.71-19.54H67.47z"/>
	<path class="st0" d="M107.65,236.77H92.76v-24.56h14.89v1.7H94.49v12.73h11.54v1.7H94.49v6.67h13.16V236.77z"/>
	<path class="st0" d="M132.93,236.7v-24.56h9.02c4.22,0,7.72,3.28,8.04,7.5c0.32,4.22-2.67,7.97-6.85,8.58l6.46,8.47h-2.17
		l-6.38-8.37h-6.42v8.37H132.93z M134.63,226.64h7.32c3.53,0,6.38-2.85,6.38-6.38c0-3.53-2.85-6.38-6.38-6.38h-7.32V226.64z"/>
	<path class="st0" d="M180.22,212.18c6.78,0,12.26,5.48,12.26,12.26S187,236.7,180.22,236.7h-4.9v-24.56h4.9V212.18z M190.78,224.44
		c0-5.84-4.72-10.57-10.57-10.57h-3.21v21.13h3.21C186.06,235.01,190.78,230.28,190.78,224.44z"/>
	<path class="st0" d="M232.65,236.77h-14.89v-24.56h14.89v1.7h-13.16v12.73h11.54v1.7h-11.54v6.67h13.16V236.77z"/>
</g>
<polygon class="st1" points="46.2,258.91 61.52,258.91 61.52,309.95 68.03,309.95 68.03,258.91 83.35,258.91 83.35,252.41 
	46.2,252.41 "/>
<path class="st1" d="M183.19,252.41c-15.87,0-28.77,12.91-28.77,28.77s12.91,28.77,28.77,28.77c15.86,0,28.77-12.91,28.77-28.77
	S199.06,252.41,183.19,252.41z M183.19,303.45c-12.28,0-22.27-9.99-22.27-22.27c0-12.28,9.99-22.27,22.27-22.27
	c12.28,0,22.27,9.99,22.27,22.27C205.47,293.46,195.47,303.45,183.19,303.45z"/>
<path class="st1" d="M248.59,252.33h-21.52v57.63h6.5v-18.71h15.02c10.71,0,19.42-8.71,19.42-19.42v-0.08
	C268.01,261.04,259.3,252.33,248.59,252.33z M249.95,284.75l-16.37-0.01v-25.76h15.02c7.12,0,12.92,5.79,12.92,12.92
	C261.51,278.57,256.44,284.07,249.95,284.75z"/>
<rect x="283.12" y="252.33" class="st1" width="6.5" height="57.63"/>
<path class="st1" d="M347.8,298.44c-3.89,3.22-8.79,5.02-13.82,5.09l-0.48-0.08c-12.28,0-22.27-9.99-22.27-22.27
	c0-12.28,9.99-22.27,22.27-22.27c4.95,0,9.81,1.67,13.68,4.71l1.07,0.84l4.01-5.12l-1.07-0.84c-5.02-3.93-11.33-6.1-17.77-6.1
	c-12.79,0-23.85,8.23-27.51,20.48c-3.66,12.26,1.03,25.25,11.68,32.32c4.91,3.26,10.5,4.88,16.05,4.88c6.5,0,12.97-2.21,18.29-6.57
	l1.05-0.85l-4.13-5.09L347.8,298.44z"/>
<path class="st1" d="M366.73,309.95h7.03l4.84-11.85h25.11l4.76,11.85h7.03l-24.25-60.46L366.73,309.95z M401.09,291.6h-19.86
	l10-24.62L401.09,291.6z"/>
<polygon class="st1" points="461.84,303.45 436.46,303.45 436.46,252.41 429.96,252.41 429.96,310.03 461.97,310.03 "/>
<path class="st1" d="M217.08,303.73c0.36,0.83-8.91,10.21-9.83,10.98c-4,3.36-8.5,6.12-13.32,8.14c-10.84,4.53-23,2.64-33.66-1.61
	c-7.37-2.94-14.2-7.15-20.12-12.43c-6.04-5.39-10.36-11.88-15.22-18.27c8.86-2.37,15.01-10.83,14.29-20.19
	c-0.78-10.11-9.27-18.03-19.33-18.03H98.38v57.63h6.5v-18.71c0,0,12.33,0,12.33,0c0.93,0,4.44,5.95,5.16,6.92
	c10.07,13.53,22.51,24.1,38.72,29.53c9.54,3.19,19.94,4.44,29.7,2c12.63-3.16,23.12-12.23,30.68-22.83
	C220,305.81,218.52,304.75,217.08,303.73z M104.88,284.74v-25.84h15.02c7.12,0,12.92,5.79,12.92,12.92c0,7.12-5.8,12.92-12.92,12.92
	H104.88z"/>
</svg>
